<?xml version="1.0" encoding="UTF-8"?>
<svg width="107px" height="16px" viewBox="0 0 107 16" version="1.1" xmlns="http://www.w3.org/2000/svg" xmlns:xlink="http://www.w3.org/1999/xlink">
    <title>logo/16/text/white/gomed</title>
    <g id="logo/16/text/white/gomed" stroke="none" stroke-width="1" fill="none" fill-rule="evenodd">
        <g id="Group" transform="translate(-0.000000, 1.000000)" fill="#FFFFFF" fill-rule="nonzero">
            <path d="M1.52555823,5.50155571 C3.50682775,5.38450058 5.49316278,5.38450058 7.4744323,5.50155571 C7.89869507,6.16224582 8.32131531,6.80594283 8.72754765,7.41959089 C8.91220571,7.69540418 9.00728658,8.022572 8.99956423,8.35558435 C8.97621367,9.23792564 8.91358965,10.1202644 8.81169218,11.0026006 C8.70141875,11.9296707 7.99172174,12.6676063 7.07855771,12.8046959 C5.36915545,13.0651014 3.63083508,13.0651014 1.92143282,12.8046959 C1.00829228,12.6676128 0.298604287,11.9297113 0.188305846,11.0026689 C0.086408378,10.1202518 0.0237843614,9.23784725 0.000433795953,8.35545538 C-0.00727029981,8.02251512 0.0878081189,7.69542362 0.272442883,7.41968193 C0.678585219,6.80594283 1.10129546,6.16224582 1.52555823,5.50155571 Z M4.49999526,7.12069445 C4.29288347,7.12069445 4.12498618,7.29051741 4.12498618,7.50000465 L4.12498618,7.50000465 L4.12498618,8.82759039 L2.8124544,8.82759039 C2.6053426,8.82759039 2.43744531,8.99741335 2.43744531,9.2069006 C2.43744531,9.41638784 2.6053426,9.58621081 2.8124544,9.58621081 L2.8124544,9.58621081 L4.12498618,9.58621081 L4.12498618,10.9137965 C4.12498618,11.1232838 4.29288347,11.2931067 4.49999526,11.2931067 C4.70710706,11.2931067 4.87500435,11.1232838 4.87500435,10.9137965 L4.87500435,10.9137965 L4.87500435,9.58621081 L6.18753613,9.58621081 C6.39464793,9.58621081 6.56254521,9.41638784 6.56254521,9.2069006 C6.56254521,8.99741335 6.39464793,8.82759039 6.18753613,8.82759039 L6.18753613,8.82759039 L4.87500435,8.82759039 L4.87500435,7.50000465 C4.87500435,7.29051741 4.70710706,7.12069445 4.49999526,7.12069445 Z M6.6652152,2.13599692 C7.05671453,2.18944223 7.35976053,2.50942702 7.39573289,2.90734699 C7.43573386,3.34755924 7.4702197,3.7877715 7.4991904,4.22798376 C7.50629308,4.34441851 7.46311736,4.45824524 7.38084098,4.53999539 C7.29856461,4.62174555 7.18527713,4.66338131 7.07030751,4.6541236 C5.35891431,4.53138604 3.64107622,4.53138604 1.92968302,4.6541236 C1.81471511,4.66337718 1.70143104,4.62173819 1.61915895,4.53998654 C1.53688686,4.4582349 1.49371591,4.34440861 1.50082263,4.22797617 C1.52978833,3.78777403 1.56427167,3.34757442 1.60427264,2.90737733 C1.64023447,2.50944686 1.94328224,2.18944761 2.33479033,2.13599692 C3.77269906,1.95466769 5.22730647,1.95466769 6.6652152,2.13599692 Z" id="Combined-Shape"></path>
            <path d="M13.8272259,10.1578133 C14.3705485,10.9326055 15.2737691,11.3739889 16.2188899,11.3265653 C17.3345166,11.3265653 18.1543086,10.6145653 18.1543086,9.64687467 L18.1543086,9.13647467 L18.1272259,9.13647467 C17.5162518,9.73348987 16.6821192,10.0456285 15.8293059,9.99637333 C14.4824239,10.0350374 13.2197926,9.34282873 12.5280257,8.18652226 C11.8362588,7.0302158 11.8233624,5.59034618 12.4943066,4.42183434 C13.1652508,3.2533225 14.4152808,2.53860874 15.7626393,2.55314133 C16.6312966,2.49760063 17.4850982,2.79831072 18.1272259,3.385952 L18.1543086,3.385952 L18.1543086,2.68749867 L20.0615993,2.68749867 L20.0615993,9.62029867 C20.0615993,11.6354027 18.4626659,13.0327947 16.2188899,13.0327947 C14.7492718,13.1124846 13.3304749,12.4830721 12.4032633,11.3400907 L13.8272259,10.1578133 Z M18.0730553,5.84479467 C18.0730553,5.038544 17.1595139,4.29947733 16.1386553,4.29947733 C14.8490553,4.29947733 13.9886553,5.079168 13.9886553,6.24792 C13.9504589,6.80184591 14.1587617,7.34437883 14.5578502,7.73041145 C14.9569388,8.11644407 15.5060976,8.30659282 16.0584473,8.25 C17.1730286,8.25 18.0730553,7.55104 18.0730553,6.67760533 L18.0730553,5.84479467 Z M25.0605593,2.485936 C27.3845166,2.485936 29.0782659,4.138544 29.0782659,6.24792 C29.0782659,8.357296 27.3845166,10.0098987 25.0605593,10.0098987 C23.6574231,10.1023203 22.3194606,9.40618732 21.5898443,8.20410876 C20.860228,7.00203019 20.860228,5.49380447 21.5898443,4.29172591 C22.3194606,3.08964734 23.6574231,2.39351435 25.0605593,2.485936 Z M25.0605593,4.23229333 C23.9493264,4.23987445 23.0539095,5.14549179 23.0588741,6.2567393 C23.063922,7.3679868 23.9674622,8.26549967 25.0787183,8.26307811 C26.1899744,8.26063688 27.0895785,7.35917877 27.0897219,6.24792 C27.1148284,5.70364842 26.9086421,5.17413407 26.5220876,4.79015817 C26.1355331,4.40618226 25.6046506,4.20354461 25.0605593,4.23229333 L25.0605593,4.23229333 Z M30.1532633,2.68749867 L31.8990979,2.68749867 L31.8990979,3.37239467 L31.9261806,3.37239467 C32.5247721,2.78590753 33.3351388,2.46648088 34.1729135,2.48678774 C35.0106883,2.5070946 35.8046272,2.86540808 36.3741006,3.480208 L36.4001379,3.480208 C36.9998275,2.83514181 37.8444624,2.47393926 38.7251406,2.485936 C40.6459726,2.485936 41.9761806,3.74896 41.9761806,5.54896 L41.9761806,9.808336 L40.0553486,9.808336 L40.0553486,5.858336 C40.0894471,5.28919597 39.8051795,4.74807313 39.3171903,4.45320096 C38.8292011,4.15832878 38.2179548,4.15832878 37.7299656,4.45320096 C37.2419764,4.74807313 36.9577088,5.28919597 36.9918073,5.858336 L36.9918073,9.808336 L35.1511833,9.808336 L35.1511833,5.858336 C35.1828406,5.28828758 34.8967164,4.7474574 34.4076425,4.45289995 C33.9185685,4.15834251 33.3067153,4.15834251 32.8176414,4.45289995 C32.3285675,4.7474574 32.0424433,5.28828758 32.0741006,5.858336 L32.0741006,9.808336 L30.1532633,9.808336 L30.1532633,2.68749867 Z M46.8407673,2.485936 C47.8750825,2.43340902 48.8837559,2.81856565 49.6198252,3.54710469 C50.3558945,4.27564372 50.7514026,5.28030331 50.7095139,6.315104 L50.7095139,6.879168 L44.9324473,6.879168 C44.9991139,7.80625067 45.7657806,8.39739733 46.9480739,8.39739733 C47.8004323,8.39089717 48.6045863,8.00106128 49.1376579,7.335936 L50.3741166,8.57239467 C49.5069283,9.53511061 48.2562691,10.0619463 46.9616153,10.0098987 C44.4751566,10.0098987 42.9709913,8.518752 42.9709913,6.26146133 C42.9477518,5.23661399 43.3512094,4.24815095 44.0849525,3.5322786 C44.8186956,2.81640626 45.8168043,2.43743896 46.8407673,2.485936 Z M48.7751406,5.48177067 C48.6813913,4.63541867 47.9418073,4.09792 46.8803459,4.09792 C45.8053486,4.09792 45.0668046,4.63541867 44.9595139,5.48177067 L48.7751406,5.48177067 Z M55.2918233,2.485936 C56.1304137,2.4470084 56.9537545,2.71972344 57.6032899,3.25156267 L57.6293326,3.25156267 L57.6293326,-1.45661261e-13 L59.6178766,-1.45661261e-13 L59.6178766,9.808336 L57.7772473,9.808336 L57.7772473,9.10989867 L57.7501646,9.10989867 C57.1137985,9.73903213 56.2390661,10.0664885 55.3459993,10.0098987 C54.324314,10.0633018 53.326787,9.68737297 52.5944643,8.97295295 C51.8621415,8.25853294 51.4616437,7.27061386 51.4897486,6.24792 C51.4742923,5.23851872 51.8712331,4.26648536 52.5888447,3.55644062 C53.3064562,2.84639589 54.2826425,2.45978092 55.2918233,2.485936 Z M57.6293219,5.77760533 C57.6293219,4.93125333 56.6886979,4.23229333 55.6011993,4.23229333 C55.0452648,4.190901 54.4976991,4.38618644 54.0934224,4.77003124 C53.6891458,5.15387603 53.4657508,5.69058761 53.4782819,6.24792 C53.4782819,7.47032 54.3105699,8.25 55.6011993,8.25 C56.7293219,8.25 57.6293219,7.55104 57.6293219,6.67760533 L57.6293219,5.77760533 Z" id="Shape"></path>
        </g>
    </g>
</svg>